<svg width="243" height="115" viewBox="0 0 243 115" fill="none" xmlns="http://www.w3.org/2000/svg">
<g clip-path="url(#clip0_3_4)">
<path d="M29.1412 83.7075C31.9771 84.9787 36.3776 86.9345 41.5604 89.5748C50.2636 93.9753 53.9796 96.4201 61.8027 100.723C74.0264 107.47 80.1871 110.893 85.5655 112.36C91.6284 114.022 101.701 116.858 113.142 112.946C123.019 109.622 129.082 102.874 131.82 99.256C140.23 104.243 153.725 110.697 171.424 112.457C180.519 113.338 202.815 115.293 224.23 101.701C233.129 96.0289 239.192 89.477 242.81 84.7832C236.943 89.477 210.54 109.817 181.105 108.937C174.847 108.742 163.699 107.47 151.475 103.754C142.968 101.212 136.122 98.1803 131.233 95.6378C130.646 96.3223 129.962 97.1046 129.082 97.9847C129.082 97.9847 127.517 99.5493 125.952 100.918C123.508 102.972 106.395 112.751 85.5655 107.861C81.165 106.786 77.0578 105.221 75.1021 104.439C71.3861 102.972 68.9413 101.798 61.1182 97.6913C47.2322 90.3572 44.7874 88.8903 39.3112 86.739C35.0085 85.3699 31.4881 84.2942 29.1412 83.7075Z" fill="#18477F"/>
<path d="M0 83.9031C2.24915 81.165 7.23639 75.8844 15.2551 73.3418C17.4065 72.6573 26.2075 71.1905 33.7372 72.8529C39.5068 74.1242 41.0714 75.9822 46.2542 75.6888C47.2321 75.591 48.1122 75.4932 55.7398 73.9286C59.5536 73.1463 61.4116 72.7551 63.4651 72.2662C76.0799 69.5281 106.297 74.9065 121.454 79.8937C128.886 82.3384 133.482 84.0987 139.741 86.9345C147.955 90.7483 150.106 92.9975 163.014 96.5179C179.345 101.016 195.285 105.417 213.767 100.429C227.36 96.8112 237.139 89.6726 242.81 84.6854C235.378 91.7262 223.937 100.429 208.193 105.221C182.67 113.044 160.276 106.492 149.813 103.265C141.892 100.821 135.633 97.8869 131.233 95.6378C126.05 101.798 120.867 104.732 117.347 106.395C96.1267 115.978 70.3104 102.776 65.1275 99.9405C59.0646 96.6157 52.7083 93.682 46.6454 90.3572C40.0935 86.8367 36.9643 86.1522 35.0085 85.4677C30.8036 84.0987 25.034 82.2407 17.4065 81.8495C13.3971 81.7517 7.23639 81.9473 0 83.9031ZM64.1497 80.5782C69.2347 84.4898 73.9286 87.0323 77.3512 88.7925C81.6539 90.9439 85.9566 93.0952 92.2151 94.3665C99.256 95.8333 104.83 95.4422 106.981 95.2466C111.186 94.8555 114.707 93.8776 117.347 93.0952C114.609 92.0196 112.457 91.2373 111.382 90.7483C99.256 86.0544 95.9311 84.6854 90.4549 83.1208C88.5969 82.534 87.2279 82.1429 85.3699 81.7517C82.2406 81.0672 77.3512 79.8937 71.0927 79.9915C68.2568 80.0893 65.8121 80.2849 64.1497 80.5782Z" fill="#33ACB7"/>
<path d="M66.79 79.2092C77.449 78.3291 85.3699 80.8716 93.8776 83.6097C105.026 87.1301 115.489 90.4549 128.495 94.5621C122.725 97.0068 114.511 99.5493 104.537 99.8427C79.2092 100.332 61.4116 85.7611 56.2288 81.165C58.6735 80.4805 62.2917 79.6004 66.79 79.2092ZM64.1497 80.5782C69.6259 84.392 74.5153 87.0323 78.3291 88.7925C83.8053 91.4328 87.6191 93.2908 93.193 94.3665C99.256 95.6378 104.439 95.4422 107.666 95.051C111.577 94.6599 114.902 93.7798 117.347 93.0952C116.565 92.8019 112.751 91.335 111.871 90.9439C101.505 86.9345 99.4515 86.0544 95.9311 84.881C93.2908 84.0009 90.2594 82.9252 86.6412 82.0451C83.6097 81.2628 80.676 80.5782 76.5689 80.1871C71.3861 79.7959 67.0833 80.0893 64.1497 80.5782Z" fill="#18477F"/>
<path d="M36.6709 80.4804C38.5289 78.5246 41.3648 75.9821 45.1786 73.5374C51.8282 69.2347 57.7933 67.5723 62.3894 66.3988C68.6479 64.7364 73.8308 64.2474 77.3512 64.1496C81.4583 63.9541 84.5876 64.2474 87.1301 64.443C87.1301 64.443 100.821 65.5187 118.912 71.6794C122.334 72.8529 126.148 74.2219 131.331 76.2755C137.883 78.9158 140.914 80.5782 149.911 83.7075C171.229 91.1394 191.471 98.0825 214.843 94.4643C227.262 92.5085 236.845 88.2058 242.908 85.0765C240.952 86.7389 228.827 97.2024 216.114 100.527C210.344 102.092 203.597 102.679 203.597 102.679C199.392 103.07 196.165 102.972 194.796 102.972C191.178 102.874 188.537 102.483 186.484 102.287C184.626 101.994 181.594 101.603 175.727 100.332C174.162 99.9405 162.721 97.3979 155.191 94.5621C151.378 93.0952 148.346 91.6284 148.346 91.6284C148.053 91.5306 148.053 91.4328 146.293 90.6505C146.293 90.6505 142.87 88.8903 140.523 87.7168C136.22 85.5655 129.277 83.0229 128.593 82.7296C128.593 82.7296 113.631 77.2534 96.1267 74.2219C92.8996 73.6352 90.3571 73.244 86.7389 72.8529C84.5876 72.6573 76.6666 71.875 68.0612 72.5595C54.4685 73.4396 43.0272 77.6445 36.6709 80.4804Z" fill="#18477F"/>
<path d="M21.8069 72.2662C21.8069 72.2662 28.1632 71.5816 33.5416 71.5816C38.4311 71.5816 45.3741 72.0706 53.8818 74.3197C52.2194 74.6131 50.5569 75.0043 48.5034 75.3954C48.0144 75.4932 47.3299 75.591 46.4498 75.6888C44.983 75.7866 43.9073 75.6888 43.5161 75.6888C42.3427 75.591 41.5603 75.2976 40.778 75.102C39.8979 74.8087 39.1156 74.5153 38.5289 74.3197C37.1598 73.733 35.9864 73.3418 35.2041 73.1463C30.7058 71.9728 26.9898 72.0706 24.545 72.0706C22.9804 72.1684 21.8069 72.2662 21.8069 72.2662Z" fill="#18477F"/>
<path fill-rule="evenodd" clip-rule="evenodd" d="M236.552 82.9252C229.609 81.3606 223.644 81.9473 219.341 82.534C216.114 82.9252 215.821 83.2186 213.278 83.5119C210.247 83.9031 199.979 85.3699 190.493 82.1429C184.724 80.1871 180.91 76.8623 173.38 70.1148C164.677 62.4873 165.361 60.4337 159.396 57.3044C155.778 55.4464 151.084 53.8818 145.901 50.6548C145.217 50.2636 143.065 47.9167 139.643 45.1786C138.861 44.5919 138.274 44.1029 137.785 43.8095C137.785 42.6361 137.785 41.1692 137.589 39.5068C137.589 39.1157 137.394 37.8444 137.1 36.4754C137.003 35.9864 136.22 32.5638 134.46 29.1412C133.091 26.5009 131.526 24.6429 127.908 21.0247C122.628 15.7441 116.369 9.9745 111.969 6.55188C108.35 3.716 106.981 3.22705 106.003 1.66243C105.808 1.36906 105.319 0.586747 104.341 0.19559C103.461 -0.0977773 102.581 1.18101e-05 101.994 0.19559C99.2559 0.391168 95.9311 0.782325 92.0195 1.46685C83.903 2.8359 77.8401 4.5961 76.2755 5.08505C69.528 7.13862 58.6735 11.148 54.7619 13.8861C54.3707 14.1794 52.8061 15.2551 50.4592 15.8419C48.9923 16.233 48.21 16.1352 47.2321 16.3308C44.983 16.722 44.2007 17.9932 40.8758 20.7313C39.409 21.9048 39.1156 22.1004 37.551 23.0782C35.7908 24.2517 31.5859 27.2832 30.7058 27.9677C28.3588 29.7279 16.3308 38.6267 13.3971 43.2228C13.1037 43.7118 12.6148 44.4941 12.9081 44.8852C13.5927 45.9609 18.2865 43.9073 18.6777 43.7118C21.2202 42.5383 21.9047 41.756 27.6743 38.04C28.6522 37.4532 30.4124 36.2798 32.8571 36.0842C34.0306 35.9864 35.5952 35.9864 35.693 36.4754C35.7908 36.7687 35.2041 37.1599 33.2483 38.4311C31.6837 39.5068 30.9013 40.0936 30.7058 40.2891C28.3588 42.0493 27.3809 43.614 27.0876 44.1029C26.6964 44.6896 25.8163 46.2543 26.3053 46.841C26.5986 47.2322 27.4787 46.9388 27.8699 46.841C31.2925 45.7653 35.693 42.8316 36.6709 42.2449C41.6581 39.0179 44.1029 37.4532 46.2542 36.8665C46.7432 36.7687 48.4056 36.3776 49.0901 35.2041C49.3835 34.6174 49.3835 34.1284 49.3835 33.5417C49.3835 33.5417 49.4813 31.5859 51.0459 29.0434C51.7304 27.8699 52.9039 26.7942 56.6199 25.3274C61.5093 23.3716 65.8121 22.6871 67.7678 22.3937C70.9949 22.0026 73.6352 21.807 78.3291 21.7092C81.0672 21.7092 81.2627 21.7092 84.0008 21.6114C86.25 21.5136 88.108 21.4158 89.3792 21.4158C90.8461 21.2203 92.2151 21.0247 93.5842 20.9269C93.5842 20.9269 94.4643 20.8291 95.8333 20.7313C97.0068 20.7313 97.2024 20.7313 97.3979 20.8291C98.0825 21.1225 98.5714 21.807 99.1581 22.6871C99.5493 23.3716 99.8427 23.9583 99.8427 23.9583C100.429 25.3274 101.31 26.5987 101.994 27.9677C103.07 29.9235 104.145 31.9771 106.492 35.8886C109.524 41.0714 109.524 40.9737 109.719 41.6582C110.306 43.2228 110.404 45.472 110.795 49.8725C110.991 52.1216 111.088 53.8818 111.186 56.6199C111.382 59.6514 111.48 62.2917 111.577 64.5408C110.991 64.5408 110.111 64.5408 108.937 64.5408C107.372 64.5408 106.786 64.5408 106.101 64.932C105.906 65.0298 105.417 65.3232 105.025 65.9099C104.634 66.4966 104.634 67.0834 104.634 67.3767C105.906 67.6701 107.47 68.0612 109.23 68.5502C109.817 68.7458 111.969 69.2347 114.511 70.1148C119.4 71.5816 123.508 73.1463 125.757 73.9286C131.037 75.8844 134.949 77.5468 136.514 78.2313C136.514 78.2313 146.977 82.8274 159.396 87.1301C174.162 92.3129 181.79 94.9533 190.689 95.6378C196.361 96.0289 201.837 95.8334 203.695 95.8334C209.366 95.6378 215.038 95.3444 222.372 93.4864C228.729 91.824 234.303 89.0859 238.605 87.0323C240.463 86.1522 241.93 85.3699 242.908 84.881C240.268 83.8053 238.116 83.2186 236.552 82.9252ZM109.133 60.1403C109.133 58.5757 108.839 49.8725 101.896 43.614C92.9974 35.5952 81.3605 38.7245 79.8937 39.1157C79.4047 39.2134 67.8656 42.7339 63.7585 54.0774C62.2916 58.0867 62.2917 61.6072 62.4872 63.8563C68.7457 62.6828 74.2219 61.8027 78.9158 61.0204C86.6411 59.847 88.4013 59.6514 90.8461 60.1403C93.682 60.7271 95.3444 61.6072 99.7449 62.0961C101.896 62.2917 104.341 62.3895 106.981 61.3138C107.861 60.9226 108.644 60.4337 109.133 60.1403Z" fill="white"/>
<path d="M63.7585 17.4065C66.0076 14.4728 69.1369 11.9303 72.9507 11.0502C74.9064 10.659 76.7644 10.9524 78.6224 11.0502C80.4804 11.148 82.4362 11.4413 84.1964 11.8325C86.0544 12.3214 87.8146 12.4192 89.6726 12.4192C91.5306 12.4192 93.3886 12.2236 95.1488 11.9303C97.0068 11.6369 98.767 11.2457 100.625 10.7568C101.114 10.659 101.603 10.5612 102.19 10.5612C102.776 10.5612 103.168 10.7568 103.656 10.9524C104.634 11.3435 105.319 12.1258 105.906 12.9082C107.079 14.375 108.155 15.9396 109.23 17.4065C110.404 18.8733 111.577 20.3401 112.653 21.807C113.827 23.2738 115 24.6428 116.369 25.9141C117.64 27.1854 119.205 28.1633 120.672 29.5323C121.356 30.2168 122.041 31.1947 122.041 32.2704C122.139 33.3461 121.845 34.324 121.454 35.2041C121.063 36.0842 120.476 36.9643 119.792 37.6488C119.401 38.04 119.009 38.3333 118.716 38.5289C118.423 38.8223 118.325 39.1156 118.227 39.5068C118.031 40.2891 118.325 41.1692 118.716 41.9515C119.107 42.7338 119.694 43.5161 120.281 44.2007C121.552 45.5697 123.214 46.4498 125.072 46.841C123.214 46.6454 121.356 45.9609 119.987 44.5918C119.303 43.9073 118.618 43.2228 118.129 42.3427C117.64 41.5604 117.249 40.4847 117.347 39.409C117.445 38.9201 117.738 38.3333 118.129 37.9422C118.52 37.551 118.912 37.3554 119.205 37.0621C119.792 36.4753 120.281 35.693 120.672 34.9107C121.063 34.1284 121.258 33.2483 121.161 32.466C121.063 31.6837 120.672 30.9991 119.987 30.3146C118.716 29.0434 117.054 28.0655 115.685 26.6964C114.315 25.4252 113.044 23.9583 111.871 22.4915C110.697 21.0247 109.524 19.5578 108.35 18.091C107.177 16.6241 106.101 15.0595 105.026 13.5927C104.439 12.9082 103.852 12.2236 103.07 11.9303C102.679 11.7347 102.287 11.6369 101.896 11.6369C101.505 11.6369 101.114 11.7347 100.625 11.8325C98.8648 12.3214 96.909 12.7126 95.051 13.0059C93.193 13.2993 91.335 13.4949 89.3792 13.4949C87.5212 13.4949 85.5655 13.2993 83.7075 12.9082C81.9473 12.517 80.0893 12.3214 78.2313 12.1258C76.3733 12.0281 74.5153 11.8325 72.7551 12.1258C70.9949 12.4192 69.2347 13.0059 67.67 13.9838C66.4966 14.8639 65.0297 16.0374 63.7585 17.4065Z" fill="black"/>
<path d="M119.987 63.9541C120.476 63.1718 121.063 62.4873 121.747 61.8027C122.53 61.216 123.312 60.8248 124.192 60.3359C125.072 59.9447 125.952 59.6514 126.832 59.358C127.713 59.0646 128.69 58.8691 129.668 58.7713C130.646 58.7713 131.722 58.9669 132.504 59.5536C133.384 60.0425 134.069 60.8248 134.558 61.6072C135.145 62.2917 135.634 63.074 136.122 63.9541C136.416 64.8342 136.709 65.7143 136.807 66.6922C136.318 65.9099 135.829 65.1276 135.242 64.443C134.851 63.6607 134.264 62.9762 133.776 62.1939C133.189 61.5094 132.7 60.8248 131.918 60.4337C131.233 60.0425 130.353 59.847 129.571 59.847C128.69 59.847 127.908 60.0425 127.028 60.3359C126.148 60.6293 125.366 60.9226 124.486 61.3138C123.703 61.7049 122.921 62.0961 122.236 62.6828C121.552 63.074 120.77 63.4652 119.987 63.9541Z" fill="black"/>
<path d="M133.189 53.1973C133.873 54.273 134.167 55.5442 133.971 56.8155C133.776 58.0867 133.091 59.2602 132.015 60.1403L131.429 59.358C132.406 58.7713 133.091 57.7934 133.482 56.7177C133.873 55.5442 133.776 54.273 133.189 53.1973Z" fill="black"/>
<path d="M242.81 84.881C237.823 83.2185 227.262 79.8937 217.092 78.3291C214.256 77.9379 211.518 77.6446 211.518 77.6446C206.531 77.1556 202.13 77.0578 196.556 77.0578C182.475 76.8622 174.065 77.3512 163.406 80.2849C158.418 81.6539 154.409 83.3163 151.867 84.392C153.333 82.534 155.485 80.0893 158.418 77.5468C167.806 69.5281 177.683 67.2789 181.594 66.3988C195.089 63.4651 205.944 66.301 212.105 67.9634C226.969 71.9728 237.139 79.6981 242.81 84.881Z" fill="#33ACB7"/>
<path d="M153.529 82.534C156.169 78.3291 162.819 69.0391 175.14 63.5629C183.355 59.9447 190.395 59.5536 193.818 59.358C197.045 59.2602 215.332 58.7713 231.467 71.9728C237.139 76.6667 240.757 81.5561 242.908 84.881C237.334 79.8937 227.555 72.4618 213.474 68.2568C208.291 66.6922 197.632 63.7585 184.528 65.8121C179.736 66.5944 176.216 67.7679 175.238 68.159C164.384 71.9728 157.343 78.4269 153.529 82.534Z" fill="#18477F"/>
</g>
<defs>
<clipPath id="clip0_3_4">
<rect width="242.81" height="115" fill="white"/>
</clipPath>
</defs>
</svg>
