<svg width="60" height="60" viewBox="0 0 60 60" fill="none" xmlns="http://www.w3.org/2000/svg">
<path d="M52.6711 9.63354H7.32887C3.28791 9.63354 0 12.9215 0 16.9624V43.0378C0 47.0788 3.28791 50.3667 7.32887 50.3667H52.6711C56.7121 50.3667 60 47.0788 60 43.0378V16.9632C60.0008 12.9215 56.7129 9.63354 52.6711 9.63354ZM49.09 14.4148L30 26.7138L10.91 14.4148H49.09ZM52.6711 45.5862H7.32887C5.92398 45.5862 4.78126 44.4427 4.78126 43.0386V17.0987L28.525 32.3668C28.5569 32.3868 28.5911 32.4003 28.6238 32.4186C28.6581 32.4378 28.6931 32.4561 28.7282 32.4736C28.9123 32.5684 29.1019 32.6449 29.2956 32.6951C29.3155 32.7007 29.3354 32.7031 29.3553 32.7079C29.5681 32.7581 29.7833 32.7892 29.9984 32.7892C29.9992 32.7892 30 32.7892 30 32.7892C30.0016 32.7892 30.0024 32.7892 30.0032 32.7892C30.2183 32.7892 30.4335 32.7589 30.6463 32.7079C30.6662 32.7031 30.6861 32.7007 30.706 32.6951C30.8997 32.6449 31.0885 32.5684 31.2734 32.4736C31.3085 32.4561 31.3435 32.4378 31.3778 32.4186C31.4105 32.4003 31.4447 32.3868 31.4766 32.3668L55.2203 17.0987V43.0378C55.2195 44.4427 54.076 45.5862 52.6711 45.5862Z" fill="white"/>
</svg>
