<svg width="60" height="60" viewBox="0 0 60 60" fill="none" xmlns="http://www.w3.org/2000/svg">
<path d="M54.5455 0H5.45455C2.44091 0 0 2.44091 0 5.45455V54.5455C0 57.5591 2.44091 60 5.45455 60H32.7273V35.4545H24.5455V27.2727H32.7273V22.8791C32.7273 14.5609 36.78 10.9091 43.6936 10.9091C47.0045 10.9091 48.7555 11.1545 49.5845 11.2664V19.0909H44.8691C41.9345 19.0909 40.9091 20.64 40.9091 23.7764V27.2727H49.5109L48.3436 35.4545H40.9091V60H54.5455C57.5591 60 60 57.5591 60 54.5455V5.45455C60 2.44091 57.5564 0 54.5455 0Z" fill="white"/>
</svg>
