<?xml version="1.0" encoding="utf-8"?>
<!-- Generator: Adobe Illustrator 23.1.0, SVG Export Plug-In . SVG Version: 6.00 Build 0)  -->
<svg version="1.1" id="Layer_1" xmlns="http://www.w3.org/2000/svg" xmlns:xlink="http://www.w3.org/1999/xlink" x="0px" y="0px"
	 viewBox="0 0 300 300" style="enable-background:new 0 0 300 300;" xml:space="preserve" fill="#144B66">
<path d="M251.6,156.2c0.4-9,0.5-22.6-1.7-38.8c-3.8-29.1-8.1-61.7-33.1-86C190.2,5.5,155.7,4.3,152,4.2
	c-35.2-0.7-65.4,18.8-81.4,41.6C56.7,65.7,54,87.4,50.2,118.2c-2,16.4-2.2,30.2-2,39.6c7-3,17.5-7.1,30.6-10.3
	c6.3-1.6,21.2-4.9,69-5.4c31.6-0.3,47.8-0.4,66.5,3.3C230.1,148.6,242.9,152.8,251.6,156.2z"/>
<path d="M112,281.8c-0.6,4.5,21,14.5,42.9,13.9c20.1-0.5,40.1-9.9,39.4-14.3c-0.2-1.6-3.2-2.5-5.8-3c-23.3,0.1-46.7,0.2-70,0.2
	C115.1,279.3,112.2,280.3,112,281.8z"/>
<path d="M126.8,252.4c-0.4,3.9,13.4,12.4,27.4,11.9c12.9-0.4,25.6-8.5,25.2-12.3c-0.2-1.4-2-2.1-3.7-2.6
	c-14.9,0.1-29.8,0.1-44.7,0.2C128.8,250.2,127,251.1,126.8,252.4z"/>
<path d="M55.1,175.6c0.3,3.8,5.8,4.4,13.2,11.7c2.6,2.6,4.2,4.7,4.5,5.2c3.8,5.2,5,9.8,5.6,11.4c4.8,12.7,36.7,22.8,52.1,11
	c1.8-1.4,3-2.7,3.7-3.6c11.6,0.1,23.3,0.2,34.9,0.3c0.8,0.6,2.4,1.7,4.5,2.9c17.6,9.4,44.6,3.9,49.9-8.1c1.2-2.8,1.6-6.7,5.2-12.7
	c1.8-2.9,3.5-5,4.7-6.3c1.4-1,3.5-2.4,6-3.9c6.1-3.5,8.9-4,9.4-6.2c0.5-2.2-1.4-5.2-3.9-6.1c-4-1.4-6.9,3.7-12.9,5.1
	c-7.3,1.7-9.9-4.1-18.7-5.8c-18-3.3-35.7,15.7-38,18.2c-3.6,3.9-6,7.6-7.6,10.2c-11.3,0-22.6,0-33.9,0c-1.6-2.8-4.1-6.7-8-10.8
	c-2.6-2.8-18.1-19.1-35.3-16.8c-9.5,1.3-12.7,7.3-19.8,4.9c-5.7-2-8.2-7.5-11.9-6.4C56.8,170.6,55,173.3,55.1,175.6z"/>
</svg>
