<?xml version="1.0" encoding="utf-8"?>
<!-- Generator: Adobe Illustrator 23.1.0, SVG Export Plug-In . SVG Version: 6.00 Build 0)  -->
<svg version="1.1" id="Layer_1" xmlns="http://www.w3.org/2000/svg" xmlns:xlink="http://www.w3.org/1999/xlink" x="0px" y="0px"
	 viewBox="0 0 300 300" style="enable-background:new 0 0 300 300;" xml:space="preserve" fill="#144B66">

<path d="M96.3,243.6c-0.7,0-1.4,0-2.1-0.1c-14.3-0.7-23.8-8.8-31.5-15.2c-7.8-6.5-12.9-10.5-20.6-10.3c-7,0.2-14.3,3.8-21.5,10.8
	c-4,3.8-10.3,3.7-14.1-0.3c-3.8-4-3.7-10.3,0.3-14.1c11-10.5,22.7-15.9,34.8-16.3c15.7-0.4,25.9,8.1,34.1,15
	c7.5,6.3,12.4,10.2,19.7,10.5c7.4,0.4,12-3.3,19.4-9.8c7.9-7,17.8-15.7,34-15.7c0.1,0,0.1,0,0.2,0c16,0.1,25.6,8.5,33.3,15.2
	c7.1,6.3,11.6,9.8,18.9,9.5c7.6-0.3,12.8-4.4,20.5-11.1c8.1-7,18.1-15.6,33.5-15.6c0.2,0,0.4,0,0.6,0c13.5,0.2,26.7,6.9,39,20
	c3.8,4,3.6,10.3-0.4,14.1c-4,3.8-10.3,3.6-14.1-0.4c-8.5-9-16.9-13.7-24.8-13.8c-7.7-0.2-12.9,4-20.8,10.8
	c-7.9,6.8-17.8,15.3-32.8,15.9c-15.7,0.6-25.2-7.8-32.9-14.5c-7.2-6.3-12.1-10.2-20.1-10.3c0,0-0.1,0-0.1,0
	c-8.3,0-13.3,4.1-20.8,10.7C120.3,235.4,111,243.6,96.3,243.6z"/>
<path d="M96.3,295.4c-0.7,0-1.4,0-2.1-0.1c-14.3-0.7-23.8-8.8-31.5-15.2c-7.8-6.5-12.9-10.5-20.6-10.3c-7,0.2-14.3,3.8-21.5,10.8
	c-4,3.8-10.3,3.7-14.1-0.3c-3.8-4-3.7-10.3,0.3-14.1c11-10.5,22.7-15.9,34.8-16.3c15.7-0.4,25.9,8.1,34.1,15
	C83,271.1,88,275,95.2,275.4c7.4,0.4,12-3.3,19.4-9.8c7.9-7,17.8-15.7,34-15.7c0.1,0,0.1,0,0.2,0c16,0.1,25.6,8.5,33.3,15.2
	c7.1,6.3,11.6,9.8,18.9,9.5c7.6-0.3,12.8-4.4,20.5-11.1c8.1-7,18.1-15.6,33.5-15.6c0.2,0,0.4,0,0.6,0c13.5,0.2,26.7,6.9,39,20
	c3.8,4,3.6,10.3-0.4,14.1c-4,3.8-10.3,3.6-14.1-0.4c-8.5-9-16.9-13.7-24.8-13.8c-7.7-0.1-12.9,4-20.8,10.8
	c-7.9,6.8-17.8,15.3-32.8,15.9c-15.6,0.6-25.2-7.8-32.9-14.5c-7.2-6.3-12.1-10.2-20.1-10.3c-8.3,0-13.4,4-20.9,10.7
	C120.3,287.2,111,295.4,96.3,295.4z"/>
<path d="M45.5,19.4c0,0,1.4-1.3,4.5-0.8c6.2,1,39.6,39.6,45.1,45.9c17.3,0.1,34.5,0.3,51.8,0.4c2.7,0.9,4.6,2.1,5.7,2.9
	c5,3.6,5.8,7.4,11.2,11.2c1.7,1.2,3.3,2,4.3,2.4c10.8,0,21.5,0,32.3,0c0.9,0.1,2.4,0.5,3.8,1.4c3.3,2.3,2.6,6,4.7,6.9
	c2.4,1,4.7-3.3,10.1-5.4c4.4-1.7,9.8-1.5,14,0.5c6.7,3.1,10.5,10.8,10.2,18.1c-0.5,10.7-9.9,16.2-11.4,17.1
	c-6.9,4.1-13.9,3.3-16.1,2.9c0.5,4,1.6,6.9,2.4,8.7c5.6,13.3,20.5,24.9,23,26.9c1.4,1.1,4.9,3.7,5.6,7.8c0.3,2,0.1,5.1-1.8,6.2
	c-1.9,1.2-4.8-0.1-6.4-1c-24.7-12.5-40.9-32.3-40.9-32.3c-6-7.3-9-11-10.5-14.5c-1.7-4-2.4-7.7-5.9-10.2c-2.9-2.1-6.1-2.2-8.3-2.4
	c0,0-15-1-30.4-8.6c-3.3-1.6-8.2-4.5-13.4-9.6c-11.6-0.2-23.2-0.4-34.8-0.6c-1.2,0-4,0-6.9-1.7c-2-1.1-3.3-2.6-4-3.6
	c-5.9-9-39-59-39-64.9C44.2,20.6,45.5,19.4,45.5,19.4z"/>
</svg>
