<svg width="234" height="45" viewBox="0 0 234 45" fill="none" xmlns="http://www.w3.org/2000/svg">
<g clip-path="url(#clip0_11_73)">
<path d="M27 44.8C30 29.9 33 15 36 0C33.8 0 31.6 0 29.4 0C26.4 14.9 23.4 29.9 20.4 44.8C22.6 44.8 24.8 44.8 27 44.8Z" fill="white"/>
<path d="M22.1345 22.9248C25.6523 5.4356 27.4506 -8.95406 26.1511 -9.21545C24.8516 -9.47683 20.9464 4.48904 17.4286 21.9782C13.9108 39.4673 12.1125 53.857 13.412 54.1184C14.7115 54.3798 18.6167 40.4139 22.1345 22.9248Z" fill="white"/>
<path d="M10.1 44.8C13.1 29.9 16.1 14.9 19.1 0C18.5 0 17.9 0 17.3 0C14.3 14.9 11.3 29.9 8.29999 44.8C8.89999 44.8 9.49999 44.8 10.1 44.8Z" fill="white"/>
<path d="M4.9 44.8C7.9 29.9 10.9 14.9 13.9 0C13.6 0 13.3 0 13 0C10 15 7 29.9 4 44.8C4.3 44.8 4.6 44.8 4.9 44.8Z" fill="white"/>
<path d="M0.6 44.8C3.6 29.9 6.6 14.9 9.6 0C9.3 0 9.1 0 8.9 0C5.9 15 3 29.9 0 44.8C0.2 44.8 0.4 44.8 0.6 44.8Z" fill="white"/>
<path d="M73.4 24.9C75.6 21.9 76.7 18.4 76.7 14.3C76.7 9.8 75.1 6.3 72 3.8C68.9 1.3 64.3 0 58.6 0H39.5L30.5 44.8H43.2L44.5 38.2C45.8 31.5 47.1 24.9 48.5 18.2L50.2 10H56.9C59.1 10 60.8 10.5 62.1 11.4C63.3 12.3 64 13.7 64 15.5C64 17.9 63.2 19.8 61.7 21.1C60.2 22.4 58 23.1 55.2 23.1H49.4C48.7 26.4 48.1 29.6 47.4 32.9H52.1L58.8 44.8H72L64.4 31.4C68.2 30 71.2 27.8 73.4 24.9Z" fill="white"/>
<path d="M112.6 26.8L114.5 17.3H96.4C95.8 20.5 95.1 23.6 94.5 26.8H112.6Z" fill="white"/>
<path d="M92.7 26.8C93.3 23.6 94 20.5 94.6 17.3L96.1 9.69999H118.7L120.7 -0.100006H85.6L76.6 44.7H112.5L114.5 34.9H91.1L92.7 26.8Z" fill="white"/>
<path d="M174.1 0L165.2 44.8H177.8L186.8 0H174.1Z" fill="white"/>
<path d="M171.3 0H156.3L136.1 18.3L139.8 0H127.3L118.3 44.8H130.8L133 33.9L138.8 28.7L149.1 44.8H163.3L148.2 20.6L171.3 0Z" fill="white"/>
<path d="M221.5 0L216.6 24.5L201.8 0H191.3L182.4 44.8H194.8L199.7 20.2L214.5 44.8H224.9L233.9 0H221.5Z" fill="white"/>
</g>
<defs>
<clipPath id="clip0_11_73">
<rect width="233.9" height="44.8" fill="white"/>
</clipPath>
</defs>
</svg>
