<svg width="60" height="60" viewBox="0 0 60 60" fill="none" xmlns="http://www.w3.org/2000/svg">
<g clip-path="url(#clip0_31_172)">
<path d="M59.3571 45.5019C57.1236 41.2796 49.3675 36.7013 49.026 36.5011C48.0294 35.9339 46.9894 35.6335 46.0161 35.6335C44.569 35.6335 43.3844 36.2965 42.6669 37.5022C41.5324 38.8592 40.1253 40.4454 39.7838 40.6912C37.141 42.4842 35.0721 42.2807 32.783 39.9915L20.0071 27.2145C17.7324 24.9398 17.5233 22.8454 19.3041 20.217C19.5532 19.8733 21.1394 18.4651 22.4964 17.3294C23.3618 16.8144 23.9557 16.0492 24.216 15.1104C24.5619 13.8613 24.3072 12.3919 23.4908 10.9604C23.2984 10.6311 18.7179 2.8739 14.4978 0.641502C13.7103 0.224387 12.8227 0.00415039 11.9328 0.00415039C10.4668 0.00415039 9.08755 0.575876 8.05088 1.61143L5.22785 4.43335C0.763054 8.89704 -0.853126 13.9569 0.421576 19.4717C1.48494 24.0678 4.58382 28.9586 9.63369 34.0073L25.9901 50.3638C32.3815 56.7551 38.4747 59.9964 44.1007 59.9964C44.1007 59.9964 44.1007 59.9964 44.1018 59.9964C48.2396 59.9964 52.0971 58.2378 55.5641 54.7708L58.3861 51.9488C60.1012 50.2348 60.4905 47.6431 59.3571 45.5019Z" fill="white"/>
</g>
<defs>
<clipPath id="clip0_31_172">
<rect width="60" height="60" fill="white"/>
</clipPath>
</defs>
</svg>
