<?xml version="1.0" encoding="utf-8"?>
<!-- Generator: Adobe Illustrator 23.1.0, SVG Export Plug-In . SVG Version: 6.00 Build 0)  -->
<svg version="1.1" id="Layer_1" xmlns="http://www.w3.org/2000/svg" xmlns:xlink="http://www.w3.org/1999/xlink" x="0px" y="0px"
	 viewBox="0 0 300 300" style="enable-background:new 0 0 300 300;" xml:space="preserve" fill="#144B66">
<path d="M95.8,228c-0.7,0-1.4,0-2.1-0.1c-14.3-0.7-23.8-8.8-31.5-15.2c-7.8-6.5-12.9-10.5-20.6-10.3c-7,0.2-14.3,3.8-21.5,10.8
	c-4,3.8-10.3,3.7-14.1-0.3c-3.8-4-3.7-10.3,0.3-14.1c11-10.5,22.7-15.9,34.8-16.3c15.7-0.4,25.9,8.1,34.1,15
	c7.5,6.3,12.4,10.2,19.7,10.5c7.4,0.4,12-3.3,19.4-9.8c7.9-7,17.8-15.7,34-15.7c0.1,0,0.1,0,0.2,0c16,0.1,25.6,8.5,33.3,15.2
	c7.1,6.3,11.6,9.8,18.9,9.5c7.6-0.3,12.8-4.4,20.5-11.1c8.1-7,18.1-15.6,33.5-15.6c0.2,0,0.4,0,0.6,0c13.5,0.2,26.7,6.9,39,20
	c3.8,4,3.6,10.3-0.4,14.1c-4,3.8-10.3,3.6-14.1-0.4c-8.5-9-16.9-13.7-24.8-13.8c-7.7-0.2-12.9,4-20.8,10.8
	c-7.9,6.8-17.8,15.3-32.8,15.9c-15.7,0.6-25.2-7.8-32.9-14.5c-7.2-6.3-12.1-10.2-20.1-10.3c0,0-0.1,0-0.1,0
	c-8.3,0-13.3,4.1-20.8,10.7C119.8,219.8,110.5,228,95.8,228z"/>
<path d="M95.8,279.8c-0.7,0-1.4,0-2.1-0.1c-14.3-0.7-23.8-8.8-31.5-15.2c-7.8-6.5-12.9-10.5-20.6-10.3c-7,0.2-14.3,3.8-21.5,10.8
	c-4,3.8-10.3,3.7-14.1-0.3c-3.8-4-3.7-10.3,0.3-14.1c11-10.5,22.7-15.9,34.8-16.3c15.7-0.4,25.9,8.1,34.1,15
	c7.5,6.3,12.4,10.2,19.7,10.5c7.4,0.4,12-3.3,19.4-9.8c7.9-7,17.8-15.7,34-15.7c0.1,0,0.1,0,0.2,0c16,0.1,25.6,8.5,33.3,15.2
	c7.1,6.3,11.6,9.8,18.9,9.5c7.6-0.3,12.8-4.4,20.5-11.1c8.1-7,18.1-15.6,33.5-15.6c0.2,0,0.4,0,0.6,0c13.5,0.2,26.7,6.9,39,20
	c3.8,4,3.6,10.3-0.4,14.1c-4,3.8-10.3,3.6-14.1-0.4c-8.5-9-16.9-13.7-24.8-13.8c-7.7-0.1-12.9,4-20.8,10.8
	c-7.9,6.8-17.8,15.3-32.8,15.9c-15.6,0.6-25.2-7.8-32.9-14.5c-7.2-6.3-12.1-10.2-20.1-10.3c-8.3,0-13.4,4-20.9,10.7
	C119.8,271.6,110.5,279.8,95.8,279.8z"/>
<line x1="71.4" y1="101.3" x2="71.4" y2="133.9"/>
<path d="M71.4,133.9c11.3,0.1,22.5,0.2,33.8,0.3c4.4,0,8,3.7,7.9,8.1c0,4.4-3.6,7.9-8,7.9c0,0,0,0-0.1,0
	c-11.2-0.1-22.5-0.2-33.7-0.3l0,8.7c0,5.5-4.5,10-10,10c0,0,0,0,0,0c-5.5,0-10-4.5-10-10l0-84.8c-0.1-1.5-0.1-3,0.1-4.5
	c0.3-2.6,1-5.1,2.1-7.7c3.1-6.7,6-11.7,7.9-14.6v-0.3l2-2.7c5.3-7,11.4-14,18.1-20.8c3.9-3.9,10.2-4,14.1-0.1
	c3.9,3.9,4,10.2,0.1,14.1c-6.1,6.2-11.6,12.6-16.5,18.9c-0.1,0.2-3.8,5.1-7.7,13.8c-0.2,0.4-0.4,0.9-0.5,1.6c0,0.3,0,0.6,0,0.9
	l0.1,0.5l0,12.4c11.3,0.1,22.5,0.2,33.8,0.3c4.4,0,8,3.7,7.9,8.1c0,4.4-3.6,7.9-8,7.9c0,0,0,0-0.1,0c-11.2-0.1-22.4-0.2-33.7-0.3"/>
<path d="M138.9,170.2C138.9,170.2,138.9,170.2,138.9,170.2c-5.5,0-10-4.5-10-10l0-84.8c-0.1-1.5-0.1-3,0.1-4.5
	c0.4-3.9,1.7-6.8,2.1-7.7c2.1-4.5,4.3-8.8,6.7-12.7c1.1-1.8,2.1-3.5,3.3-4.9l0,0c5.3-7,11.4-14,18.1-20.8c3.9-3.9,10.2-4,14.1-0.1
	c3.9,3.9,4,10.2,0.1,14.1c-6.1,6.2-11.6,12.6-16.5,18.9c-0.2,0.2-3.8,5.2-7.7,13.7c-0.2,0.4-0.4,0.9-0.5,1.6c0,0.3,0,0.6,0,0.9
	l0.1,0.5l0,85.8C148.9,165.7,144.4,170.2,138.9,170.2z"/>
</svg>
